<svg width="121" height="26" viewBox="0 0 121 26" xmlns="http://www.w3.org/2000/svg" xmlns:sketch="http://www.bohemiancoding.com/sketch/ns"><title>create + Oval 5</title><g sketch:type="MSLayerGroup" fill="#15C0D4"><path d="M16.893 21.78s-2.789 2.59-6.933 2.59c-5.777 0-8.208-4.22-8.208-8.858 0-5.223 2.869-8.649 8.208-8.649 3.785 0 5.777 1.713 5.777 1.713l.757-1.504s-2.351-1.838-6.534-1.838c-6.574 0-9.961 4.345-9.961 10.278 0 5.682 2.909 10.487 9.961 10.487 4.701 0 7.61-2.799 7.61-2.799l-.677-1.421zm6.241 3.58v-13.486c.877-1.461 3.309-4.927 6.618-4.927 1.555 0 2.392.459 2.392.459l.558-1.545s-.997-.626-2.751-.626c-3.708 0-6.14 3.633-6.818 4.802v-4.468l-1.794.543v19.248h1.794zm28.428-9.053s.319-.877.319-2.173c0-5.055-3.106-8.899-8.72-8.899-6.291 0-9.516 4.345-9.516 10.278 0 5.682 2.986 10.487 9.954 10.487 4.698 0 7.605-2.925 7.605-2.925l-.677-1.295s-2.787 2.59-6.928 2.59c-5.455 0-7.923-3.635-8.162-8.064h16.126zm-16.144-1.533c.239-4.813 2.909-7.911 7.731-7.911 4.304 0 7.013 2.511 7.013 7.241 0 .251 0 .502-.04.67h-14.704zm41.672 8.719s-1.553.668-2.588.668c-.796 0-1.035-.376-1.035-1.128v-15.166s-3.106-2.632-7.924-2.632c-6.491 0-10.114 4.22-10.114 10.236 0 5.724 2.708 10.529 8.999 10.529 3.584 0 6.093-1.88 7.287-3.008v.501c0 1.295.677 2.131 2.27 2.131 2.11 0 3.504-1.086 3.504-1.086l-.398-1.045zm-5.422-2.214c-.954.961-3.497 3.092-7.035 3.092-5.286 0-7.432-3.886-7.432-8.9 0-5.307 3.021-8.608 8.267-8.608 3.14 0 5.326 1.128 6.2 1.671v12.744zm18.809 1.841s-1.196 1.21-4.027 1.21c-2.233 0-3.588-1.419-3.588-4.215v-12.645h6.937v-1.628h-6.937v-5.843l-1.794.668v5.175h-2.95l-.518 1.628h3.469v12.52c0 4.215 2.193 6.01 5.303 6.01 3.269 0 4.864-1.544 4.864-1.544l-.758-1.335zm19.839-6.814s.319-.877.319-2.173c0-5.055-3.106-8.899-8.72-8.899-6.291 0-9.516 4.345-9.516 10.278 0 5.682 2.986 10.487 9.954 10.487 4.698 0 7.605-2.925 7.605-2.925l-.677-1.295s-2.787 2.59-6.928 2.59c-5.455 0-7.923-3.635-8.162-8.064h16.126zm-16.088-1.533c.239-4.813 2.909-7.911 7.731-7.911 4.304 0 7.013 2.511 7.013 7.241 0 .251 0 .502-.04.67h-14.704z" sketch:type="MSShapeGroup"/><path d="M121 22.365c0-2.008-1.551-3.635-3.464-3.635s-3.464 1.628-3.464 3.635c0 2.008 1.551 3.635 3.464 3.635s3.464-1.628 3.464-3.635zm-5.432 0c0-1.14.881-2.065 1.968-2.065s1.968.924 1.968 2.065c0 1.14-.881 2.065-1.968 2.065s-1.968-.924-1.968-2.065z" sketch:type="MSShapeGroup"/></g></svg>